# xmcd CD database file
#
# Track frame offsets:
#	150
#	11546
#	29833
#	39925
#	52622
#	69589
#	86940
#	106851
#	125339
#	142047
#	155164
#	173720
#	189040
#	203027
#	216266
#	234864
#	251985
#	263492
#	275103
#
# Disc length: 3816 seconds
#
# Revision: 1
# Processed by: cddbd v1.5.2PL0 Copyright (c) Steve Scherf et al.
# Submitted via: CDex 1.70beta2
#
DISCID=0b0ee613
DTITLE=Çeşitli Sanatçılar - Bir Zamanlar 1
DYEAR=2005
DGENRE=Pop
TTITLE0=Uğur Akdora - Hayırdır inşallah
TTITLE1=Yeşim - Olmaz böyle şey
TTITLE2=Ayşe Mine - Demek ki öyle
TTITLE3=Serpil Barlas - Oldu olanlar
TTITLE4=Meral-Zuhal - Yeter ki anla
TTITLE5=Erkut Taçkın - Beyaz ev
TTITLE6=Banu - Ölsem de bir, kalsam da bir
TTITLE7=Esmeray - Unutama beni
TTITLE8=Zaliha - Beklenmeyen misafir
TTITLE9=Funda - Affetmem
TTITLE10=Melike Demirağ - Ninni
TTITLE11=Rüçhan Çamay - Para... Parra... Parrra...
TTITLE12=Erol Büyükburç - Gençlik şarkısı
TTITLE13=Semiha Yankı - Sıcak sımsıcaksın
TTITLE14=Turgay Merih - Çalsam birgün kapını
TTITLE15=Mehmet Taneri - Bir zamanlar
TTITLE16=Ercan Turgut - Tövbe
TTITLE17=Erol Evgin - Gel de yanma
TTITLE18=Anne Marie David - Neşeli gençleriz
EXTD=YEAR: 2005
EXTT0=
EXTT1=
EXTT2=
EXTT3=
EXTT4=
EXTT5=
EXTT6=
EXTT7=
EXTT8=
EXTT9=
EXTT10=
EXTT11=
EXTT12=
EXTT13=
EXTT14=
EXTT15=
EXTT16=
EXTT17=
EXTT18=
PLAYORDER=
